<svg xmlns="http://www.w3.org/2000/svg" width="19.99" height="20" viewBox="0 0 19.99 20">
  <path id="Vector" d="M14.19,0H5.81C2.17,0,0,2.17,0,5.81v8.37C0,17.83,2.17,20,5.81,20h8.37c3.64,0,5.81-2.17,5.81-5.81V5.81C20,2.17,17.83,0,14.19,0Zm.47,9.25-1.62,1.02.14,2.4c.13,1.34-.33,1.8-1.6,1.95l-5.07.6a1.373,1.373,0,0,1-.61-.04L7.88,13.2a.754.754,0,0,0,0-1.06.767.767,0,0,0-1.07,0L4.84,14.12a1.373,1.373,0,0,1-.04-.61l.59-5.07c.16-1.27.62-1.68,1.96-1.6l2.39.14,1.03-1.63a1.315,1.315,0,0,1,2.13-.08l1.85,1.85A1.357,1.357,0,0,1,14.66,9.25Z" fill="#1f1f41"/>
</svg>
