<svg xmlns="http://www.w3.org/2000/svg" width="12" height="12" viewBox="0 0 14.725 13.816">
  <path id="Path_205343" data-name="Path 205343" d="M1.89-6.282a7.93,7.93,0,0,0,.054.936H.45v1.152H2.2A6.1,6.1,0,0,0,8.172.108,5.853,5.853,0,0,0,13.95-3.654H12.006A3.973,3.973,0,0,1,8.172-1.368a4.379,4.379,0,0,1-4.23-2.826h4.23V-5.346H3.654a5.329,5.329,0,0,1-.072-.936,7.034,7.034,0,0,1,.054-.882H8.172V-8.3H3.924a4.312,4.312,0,0,1,4.248-2.916,3.959,3.959,0,0,1,3.834,2.3H13.95a5.859,5.859,0,0,0-5.778-3.8A6.105,6.105,0,0,0,2.178-8.3H.45v1.134H1.944A7.034,7.034,0,0,0,1.89-6.282Z" transform="translate(0.05 13.208)" fill="#565670" stroke="#565670" stroke-width="0.5"/>
</svg>