<svg xmlns="http://www.w3.org/2000/svg" width="18" height="18" viewBox="0 0 18 18">
  <g id="Group_73558" data-name="Group 73558" transform="translate(7158 13628)">
    <rect id="Rectangle_9398" data-name="Rectangle 9398" width="18" height="18" transform="translate(-7158 -13628)" fill="none"/>
    <path id="Path_204823" data-name="Path 204823" d="M12.674,23.67a.877.877,0,0,1-.6-.238l-5-4.624a.485.485,0,0,1,0-.711l5-4.625a.886.886,0,0,1,.961-.16.9.9,0,0,1,.532.822v1.553h3.184a.48.48,0,0,1,.478.482v1.883l4.5-4.166-4.5-4.166V11.6a.48.48,0,0,1-.478.482H9.633a.482.482,0,0,1,0-.964h6.641V9.568a.9.9,0,0,1,.532-.822.885.885,0,0,1,.96.161l5,4.624a.485.485,0,0,1,0,.711l-5,4.625a.886.886,0,0,1-.961.16.9.9,0,0,1-.532-.822V16.652H13.09a.48.48,0,0,1-.478-.482V14.286l-4.5,4.166,4.5,4.166V20.736a.48.48,0,0,1,.478-.482h6.273a.482.482,0,0,1,0,.964H13.568v1.553a.9.9,0,0,1-.894.9Z" transform="translate(-7163.921 -13635.17)" fill="#9b51e0"/>
  </g>
</svg>
