<svg id="delete" xmlns="http://www.w3.org/2000/svg" width="20" height="24" viewBox="0 0 20 24">
  <path id="Path_2569" data-name="Path 2569" d="M222.975,154.7a.568.568,0,0,0-.575.561v10.7a.581.581,0,0,0,1.162,0v-10.7a.554.554,0,0,0-.173-.4.583.583,0,0,0-.414-.16Zm0,0" transform="translate(-209.576 -146.118)" fill="#f93333"/>
  <path id="Path_2570" data-name="Path 2570" d="M104.975,154.7a.568.568,0,0,0-.575.561v10.7a.581.581,0,0,0,1.162,0v-10.7a.554.554,0,0,0-.173-.4.583.583,0,0,0-.414-.16Zm0,0" transform="translate(-98.379 -146.118)" fill="#f93333"/>
  <path id="Path_2571" data-name="Path 2571" d="M1.635,7.143V20.992a3.058,3.058,0,0,0,.846,2.139A2.876,2.876,0,0,0,4.541,24H15.453a2.875,2.875,0,0,0,2.06-.869,3.058,3.058,0,0,0,.846-2.139V7.143a2.149,2.149,0,0,0,1.62-2.353,2.185,2.185,0,0,0-2.185-1.869H14.841v-.7A2.179,2.179,0,0,0,14.175.645,2.3,2.3,0,0,0,12.558,0H7.437A2.3,2.3,0,0,0,5.819.645,2.179,2.179,0,0,0,5.153,2.22v.7H2.2A2.185,2.185,0,0,0,.015,4.792a2.149,2.149,0,0,0,1.62,2.353ZM15.453,22.872H4.541a1.847,1.847,0,0,1-1.282-.582,1.753,1.753,0,0,1-.471-1.3V7.193H17.206v13.8a1.753,1.753,0,0,1-.472,1.3,1.847,1.847,0,0,1-1.281.582ZM6.306,2.219a1.069,1.069,0,0,1,.327-.782,1.127,1.127,0,0,1,.8-.315h5.122a1.127,1.127,0,0,1,.8.315,1.069,1.069,0,0,1,.327.781v.7H6.306ZM2.2,4.045H17.795a1.009,1.009,0,1,1,0,2.018H2.2a1.009,1.009,0,1,1,0-2.018Zm0,0" transform="translate(0.003 0)" fill="#f93333"/>
  <path id="Path_2572" data-name="Path 2572" d="M163.975,154.7a.568.568,0,0,0-.575.561v10.7a.581.581,0,0,0,1.162,0v-10.7a.554.554,0,0,0-.173-.4.583.583,0,0,0-.414-.16Zm0,0" transform="translate(-153.978 -146.118)" fill="#f93333"/>
</svg>
