<svg id="filter" xmlns="http://www.w3.org/2000/svg" width="25" height="25" viewBox="0 0 25 25">
  <path id="Vector" d="M2.083,0h13.75a2.089,2.089,0,0,1,2.083,2.083V4.375a3.889,3.889,0,0,1-1.042,2.4L12.4,10.729a3.391,3.391,0,0,0-1.042,2.4V17.6a2.32,2.32,0,0,1-.937,1.771l-1.458.938a2.123,2.123,0,0,1-3.229-1.771V13.021A4.027,4.027,0,0,0,4.9,10.833L.938,6.667A3.453,3.453,0,0,1,0,4.583v-2.4A2.114,2.114,0,0,1,2.083,0Z" transform="translate(3.542 2.188)" fill="none" stroke="#1f1f41" stroke-linecap="round" stroke-linejoin="round" stroke-width="1.5"/>
  <path id="Vector-2" data-name="Vector" d="M0,0H25V25H0Z" fill="none" opacity="0"/>
</svg>
