<svg id="Group_70060" data-name="Group 70060" xmlns="http://www.w3.org/2000/svg" width="12" height="14" viewBox="0 0 12 14">
  <g id="Path_2557" data-name="Path 2557" transform="translate(-32 -11.438)" fill="none">
    <path d="M43.811,12.388a.422.422,0,0,0-.4-.044,7.27,7.27,0,0,1-5.228.01,7.987,7.987,0,0,0-5.914-.01A.437.437,0,0,0,32,12.75v7a.441.441,0,0,0,.189.362.424.424,0,0,0,.4.044,7.261,7.261,0,0,1,5.229-.011,6.359,6.359,0,0,0,2.776.6,8.993,8.993,0,0,0,3.139-.585A.439.439,0,0,0,44,19.75v-7A.44.44,0,0,0,43.811,12.388Z" stroke="none"/>
    <path d="M 35.40658950805664 12.95945167541504 C 34.49189376831055 12.95945167541504 33.68253326416016 13.14912223815918 33.20000076293945 13.2930736541748 L 33.20000076293945 18.71560668945312 C 33.78426361083984 18.57283782958984 34.56021118164062 18.43923377990723 35.41806030273438 18.4391918182373 C 36.49391937255859 18.43913269042969 37.47642135620117 18.64963150024414 38.33895111083984 19.06516265869141 C 38.99435043334961 19.38143157958984 39.75297164916992 19.54179191589355 40.59371948242188 19.54179191589355 C 41.5045166015625 19.54179191589355 42.31460571289062 19.35247039794922 42.79999923706055 19.20805740356445 L 42.79999923706055 13.78303337097168 C 42.21408462524414 13.9259147644043 41.43418121337891 14.0610523223877 40.5802116394043 14.0610523223877 C 39.50460815429688 14.0610523223877 38.52270889282227 13.85075187683105 37.6613883972168 13.43582153320312 C 37.00580978393555 13.11973190307617 36.24718856811523 12.95945167541504 35.40658950805664 12.95945167541504 M 35.40658950805664 11.75945663452148 C 36.28630447387695 11.75945663452148 37.25600051879883 11.90815544128418 38.18257141113281 12.35491180419922 C 40.54742050170898 13.49415969848633 43.38286209106445 12.35579109191895 43.4102897644043 12.34441184997559 C 43.54228210449219 12.29102897644043 43.69228744506836 12.30591201782227 43.81056976318359 12.38816070556641 C 43.92885971069336 12.46954154968262 44 12.60516166687012 44 12.75041198730469 L 44 19.75041198730469 C 44 19.92891120910645 43.89371109008789 20.08904266357422 43.73257064819336 20.15641021728516 C 43.60359954833984 20.20961380004883 40.52585220336914 21.45287132263184 37.81742858886719 20.14591217041016 C 35.45085906982422 19.00578880310059 32.61713790893555 20.14416122436523 32.58885955810547 20.15641021728516 C 32.45600509643555 20.20978164672852 32.30599975585938 20.19404029846191 32.18856811523438 20.11266136169434 C 32.07114028930664 20.03129196166992 32 19.89566040039062 32 19.75041198730469 L 32 12.75041198730469 C 32 12.5719108581543 32.10628128051758 12.41179084777832 32.26829147338867 12.34529113769531 C 32.35345840454102 12.3095874786377 33.71389007568359 11.75945663452148 35.40658950805664 11.75945663452148 Z" stroke="none" fill="#9b51e0"/>
  </g>
  <g id="Path_2558" data-name="Path 2558" transform="translate(-32)" fill="#9b51e0">
    <path d="M32.429,14A.433.433,0,0,1,32,13.562V.438a.429.429,0,1,1,.857,0V13.562A.433.433,0,0,1,32.429,14Z" stroke="none"/>
    <path d="M 32.42857360839844 14 C 32.19199371337891 14 32.00000381469727 13.80399990081787 32.00000381469727 13.5625 L 32.00000381469727 0.4375 C 32.00000381469727 0.1959999948740005 32.19199371337891 -8.881784197001252e-16 32.42857360839844 -8.881784197001252e-16 C 32.66514205932617 -8.881784197001252e-16 32.85714340209961 0.1959999948740005 32.85714340209961 0.4375 L 32.85714340209961 13.5625 C 32.85714340209961 13.80399990081787 32.66514205932617 14 32.42857360839844 14 Z" stroke="none" fill="#9b51e0"/>
  </g>
</svg>
