<svg id="gps" xmlns="http://www.w3.org/2000/svg" width="18" height="18" viewBox="0 0 18 18">
  <g id="Group_73729" data-name="Group 73729" transform="translate(6.375 6.375)">
    <g id="Group_73728" data-name="Group 73728">
      <path id="Path_204896" data-name="Path 204896" d="M138.625,136a2.625,2.625,0,1,0,2.625,2.625A2.628,2.628,0,0,0,138.625,136Zm0,3.75a1.125,1.125,0,1,1,1.125-1.125A1.126,1.126,0,0,1,138.625,139.75Z" transform="translate(-136 -136)" fill="#1f1f41"/>
    </g>
  </g>
  <g id="Group_73731" data-name="Group 73731" transform="translate(0 0)">
    <g id="Group_73730" data-name="Group 73730">
      <path id="Path_204897" data-name="Path 204897" d="M17.25,8.25H15.706A6.759,6.759,0,0,0,9.75,2.294V.75a.75.75,0,1,0-1.5,0V2.294A6.759,6.759,0,0,0,2.294,8.25H.75a.75.75,0,1,0,0,1.5H2.294A6.759,6.759,0,0,0,8.25,15.706V17.25a.75.75,0,0,0,1.5,0V15.706A6.759,6.759,0,0,0,15.706,9.75H17.25a.75.75,0,0,0,0-1.5ZM9,14.25A5.25,5.25,0,1,1,14.25,9,5.256,5.256,0,0,1,9,14.25Z" transform="translate(0 0)" fill="#1f1f41"/>
    </g>
  </g>
</svg>
