<svg xmlns="http://www.w3.org/2000/svg" width="17.506" height="17.5" viewBox="0 0 17.506 17.5">
  <g id="Group_73936" data-name="Group 73936" transform="translate(10836.266 11056.25)">
    <path id="primary" d="M14.538,9h2.068a.888.888,0,0,1,.888.747l1.482,8.889a.888.888,0,0,1-.888,1.031H3.886A.888.888,0,0,1,3,18.636L4.481,9.747A.888.888,0,0,1,5.369,9H7.437" transform="translate(-10838.5 -11059.167)" fill="none" stroke="#9b51e0" stroke-linecap="round" stroke-linejoin="round" stroke-width="1.5"/>
    <path id="primary-2" data-name="primary" d="M15.1,6.556a3.551,3.551,0,1,0-7.1,0c0,3.556,3.551,7.111,3.551,7.111S15.1,10.111,15.1,6.556Z" transform="translate(-10839.063 -11058.5)" fill="none" stroke="#9b51e0" stroke-linecap="round" stroke-linejoin="round" stroke-width="1.5"/>
  </g>
</svg>
