<svg xmlns="http://www.w3.org/2000/svg" width="19.001" height="15" viewBox="0 0 19.001 15">
  <g id="Group_70047" data-name="Group 70047" transform="translate(0.5 0.5)">
    <path id="primary" d="M7,15a2,2,0,1,0,2,2A2,2,0,0,0,7,15Zm10,0a2,2,0,1,0,2,2A2,2,0,0,0,17,15Z" transform="translate(-3 -5)" fill="none" stroke="#9a9aa9" stroke-linecap="round" stroke-linejoin="round" stroke-width="1"/>
    <path id="primary-2" data-name="primary" d="M5,17H4a1,1,0,0,1-1-1V6A1,1,0,0,1,4,5h8a1,1,0,0,1,1,1V17H9" transform="translate(-3 -5)" fill="none" stroke="#9a9aa9" stroke-linecap="round" stroke-linejoin="round" stroke-width="1"/>
    <path id="primary-3" data-name="primary" d="M15,17H13V7h4.25a1,1,0,0,1,1,.73L19,10.5l1.24.31a1,1,0,0,1,.76,1V16a1,1,0,0,1-1,1H19" transform="translate(-3 -5)" fill="none" stroke="#9a9aa9" stroke-linecap="round" stroke-linejoin="round" stroke-width="1"/>
  </g>
</svg>
