<svg xmlns="http://www.w3.org/2000/svg" width="30" height="30" viewBox="0 0 30 30">
  <g id="Group_70100" data-name="Group 70100" transform="translate(0.055)">
    <g id="location" transform="translate(8.945 7.001)">
      <path id="Path_1072" data-name="Path 1072" d="M15.216,14.714a2.857,2.857,0,1,1,2.841-2.857A2.849,2.849,0,0,1,15.216,14.714Zm0-4.571a1.714,1.714,0,1,0,1.7,1.714A1.709,1.709,0,0,0,15.216,10.143Z" transform="translate(-8.966 -5.571)" fill="#1F1F41"/>
      <path id="Path_1073" data-name="Path 1073" d="M11.875,18.25,7.082,12.565q-.1-.128-.2-.258a6.25,6.25,0,1,1,9.982,0v0s-.17.225-.2.255ZM7.791,11.618s.133.176.163.214l3.921,4.651L15.8,11.826c.025-.031.158-.209.159-.209a5.114,5.114,0,1,0-8.168,0Z" transform="translate(-5.625 -2.25)" fill="#1F1F41"/>
    </g>
  </g>
</svg>