<svg xmlns="http://www.w3.org/2000/svg" width="34" height="28.88" viewBox="0 0 34 28.88">
  <path id="Path_7861" data-name="Path 7861" d="M15.276.346a1.182,1.182,0,0,0-1.671,0L5.728,8.223A1.181,1.181,0,0,0,7.4,9.893l5.86-5.86V22.185a1.181,1.181,0,0,0,2.363,0V4.034l5.86,5.86a1.181,1.181,0,0,0,1.671-1.671ZM1.313,23.5a1.313,1.313,0,0,1,1.313,1.313v3.938a2.617,2.617,0,0,0,2.616,2.625H23.633a2.623,2.623,0,0,0,2.622-2.625V24.811a1.313,1.313,0,1,1,2.625,0v3.938A5.249,5.249,0,0,1,23.633,34H5.241A5.243,5.243,0,0,1,0,28.749V24.811A1.313,1.313,0,0,1,1.313,23.5Z" transform="translate(34) rotate(90)" fill="#1f1f41" fill-rule="evenodd"/>
</svg>
