<svg xmlns="http://www.w3.org/2000/svg" width="11" height="18" viewBox="0 0 11 18">
  <path id="Icon_awesome-mobile-alt" data-name="Icon awesome-mobile-alt" d="M9.35,0H1.65A1.669,1.669,0,0,0,0,1.687V16.312A1.669,1.669,0,0,0,1.65,18h7.7A1.669,1.669,0,0,0,11,16.312V1.687A1.669,1.669,0,0,0,9.35,0ZM5.5,16.875A1.125,1.125,0,1,1,6.6,15.75,1.112,1.112,0,0,1,5.5,16.875Zm3.85-3.8a.418.418,0,0,1-.412.422H2.063a.418.418,0,0,1-.413-.422V2.109a.418.418,0,0,1,.413-.422H8.938a.418.418,0,0,1,.412.422Z" fill="#9b51e0"/>
</svg>
