<svg id="vuesax_linear_notification" data-name="vuesax/linear/notification" xmlns="http://www.w3.org/2000/svg" width="25" height="25" viewBox="0 0 25 25">
  <g id="notification">
    <path id="Vector" d="M8.381,0a6.255,6.255,0,0,0-6.25,6.25V9.26a4.978,4.978,0,0,1-.594,2.146L.34,13.4a2,2,0,0,0,1.125,3.052,21.793,21.793,0,0,0,13.823,0A2.086,2.086,0,0,0,16.412,13.4l-1.2-1.99a5.115,5.115,0,0,1-.583-2.146V6.25A6.268,6.268,0,0,0,8.381,0Z" transform="translate(4.14 3.031)" fill="none" stroke="#1f1f41" stroke-linecap="round" stroke-width="1.5"/>
    <path id="Vector-2" data-name="Vector" d="M3.854,1.313a6.306,6.306,0,0,0-1-.208A7.035,7.035,0,0,0,0,1.313a2.071,2.071,0,0,1,3.854,0Z" transform="translate(10.594 2.021)" fill="none" stroke="#1f1f41" stroke-linecap="round" stroke-linejoin="round" stroke-width="1.5"/>
    <path id="Vector-3" data-name="Vector" d="M6.25,0A3.134,3.134,0,0,1,3.125,3.125,3.136,3.136,0,0,1,.917,2.208,3.136,3.136,0,0,1,0,0" transform="translate(9.396 19.854)" fill="none" stroke="#1f1f41" stroke-width="1.5"/>
    <path id="Vector-4" data-name="Vector" d="M0,0H25V25H0Z" fill="none" opacity="0"/>
  </g>
</svg>
