<svg xmlns="http://www.w3.org/2000/svg" id="Star_stroke" data-name="Star stroke" width="21" height="21" viewBox="0 0 24 24">
  <g id="Group_5406" data-name="Group 5406" transform="translate(0 0)">
    <path id="Path_2661" data-name="Path 2661" d="M336.786,219.732a1.676,1.676,0,0,0-1.333-1.177l-6.3-.958-2.815-5.962a1.679,1.679,0,0,0-2.957,0l-2.815,5.962-6.285.958a1.679,1.679,0,0,0-1.331,1.177,1.784,1.784,0,0,0,.417,1.772l4.559,4.655-1.075,6.572a1.772,1.772,0,0,0,.656,1.692,1.592,1.592,0,0,0,1.738.13l5.614-3.1,5.631,3.1a1.585,1.585,0,0,0,.767.2,1.611,1.611,0,0,0,.973-.33,1.77,1.77,0,0,0,.656-1.691l-1.074-6.572,4.557-4.655A1.784,1.784,0,0,0,336.786,219.732Zm-7.9,4.586a1.781,1.781,0,0,0-.475,1.53l.656,4.017-3.442-1.9a1.573,1.573,0,0,0-1.534,0l-3.424,1.891.656-4.012a1.784,1.784,0,0,0-.475-1.53l-2.786-2.845,3.835-.584a1.655,1.655,0,0,0,1.24-.944l1.72-3.646,1.72,3.646a1.654,1.654,0,0,0,1.242.944l3.849.586Z" transform="translate(-312.867 -210.751)" fill="#9b51e0"/>
  </g>
</svg>