<svg id="rating" xmlns="http://www.w3.org/2000/svg" width="16" height="16" viewBox="0 0 16 16">
  <g id="Group_5401" data-name="Group 5401">
    <g id="Group_5400" data-name="Group 5400">
      <path id="Path_2658" data-name="Path 2658" d="M15.946,216.738a1.117,1.117,0,0,0-.889-.785l-4.2-.638L8.98,211.341a1.119,1.119,0,0,0-1.972,0l-1.877,3.975-4.19.638a1.119,1.119,0,0,0-.887.785,1.189,1.189,0,0,0,.278,1.181l3.039,3.1L2.655,225.4a1.181,1.181,0,0,0,.438,1.128,1.061,1.061,0,0,0,1.159.086l3.743-2.068,3.754,2.068a1.056,1.056,0,0,0,.511.133,1.074,1.074,0,0,0,.649-.22,1.18,1.18,0,0,0,.438-1.127l-.716-4.381,3.038-3.1A1.189,1.189,0,0,0,15.946,216.738Z" transform="translate(0 -210.751)" fill="#9b51e0"/>
    </g>
  </g>
</svg>
