<svg xmlns="http://www.w3.org/2000/svg" width="11" height="14" viewBox="0 0 11 14">
  <g id="flag" transform="translate(-5.5 -3.5)">
    <path id="Path_204741" data-name="Path 204741" d="M11.065,11.413C8.752,9.593,6.084,11.323,6,11.339V4.833a4.3,4.3,0,0,1,5.065,0c2.313,1.82,4.981.1,5.065.082V11.43a4.307,4.307,0,0,1-5.065-.008Z" transform="translate(-0.078 -0.09)" fill="#d56969"/>
    <path id="Path_204742" data-name="Path 204742" d="M5.922,17.5a.413.413,0,0,1-.422-.412V3.912a.422.422,0,0,1,.844,0V17.088A.413.413,0,0,1,5.922,17.5Z" transform="translate(0)" fill="#1f1f41"/>
    <path id="Path_204743" data-name="Path 204743" d="M10.727,11.646a3.863,3.863,0,0,0-4.533,0A.425.425,0,0,1,5.6,11.58.4.4,0,0,1,5.671,11a4.767,4.767,0,0,1,5.6,0,3.887,3.887,0,0,0,4.381.115V5.486a4.794,4.794,0,0,1-4.9-.428,3.863,3.863,0,0,0-4.533,0,.425.425,0,0,1-.591-.066.4.4,0,0,1,.068-.576,4.767,4.767,0,0,1,5.6,0,3.863,3.863,0,0,0,4.533,0,.423.423,0,0,1,.684.321v6.588a.414.414,0,0,1-.16.321,4.767,4.767,0,0,1-5.6,0Z" transform="translate(-0.002 -0.001)" fill="#1f1f41"/>
  </g>
</svg>
