<svg id="clock" xmlns="http://www.w3.org/2000/svg" width="18" height="18" viewBox="0 0 18 18">
  <g id="Group_56429" data-name="Group 56429" transform="translate(8.303 4.176)">
    <g id="Group_56428" data-name="Group 56428">
      <path id="Path_2998" data-name="Path 2998" d="M240.073,125.193l-2.51-1.882v-3.834a.7.7,0,0,0-1.394,0v4.183a.7.7,0,0,0,.279.558l2.789,2.091a.7.7,0,0,0,.837-1.115Z" transform="translate(-236.169 -118.779)"/>
    </g>
  </g>
  <g id="Group_56431" data-name="Group 56431">
    <g id="Group_56430" data-name="Group 56430">
      <path id="Path_2999" data-name="Path 2999" d="M9,0a9,9,0,1,0,9,9A9.01,9.01,0,0,0,9,0ZM9,16.606A7.606,7.606,0,1,1,16.606,9,7.615,7.615,0,0,1,9,16.606Z"/>
    </g>
  </g>
</svg>
