<svg xmlns="http://www.w3.org/2000/svg" width="21" height="17" viewBox="0 0 21 17">
  <g id="Group_70047" data-name="Group 70047" transform="translate(0.5 0.5)">
    <path id="primary" d="M7.222,15a2.287,2.287,0,1,0,2.222,2.286A2.255,2.255,0,0,0,7.222,15Zm11.111,0a2.287,2.287,0,1,0,2.222,2.286A2.255,2.255,0,0,0,18.333,15Z" transform="translate(-2.778 -3.571)" fill="none" stroke="#8e44d3" stroke-linecap="round" stroke-linejoin="round" stroke-width="1"/>
    <path id="primary-2" data-name="primary" d="M5.222,18.714H4.111A1.127,1.127,0,0,1,3,17.571V6.143A1.127,1.127,0,0,1,4.111,5H13a1.127,1.127,0,0,1,1.111,1.143V18.714H9.667" transform="translate(-3 -5)" fill="none" stroke="#8e44d3" stroke-linecap="round" stroke-linejoin="round" stroke-width="1"/>
    <path id="primary-3" data-name="primary" d="M15.222,18.429H13V7h4.722a1.115,1.115,0,0,1,1.111.834L19.667,11l1.378.354a1.138,1.138,0,0,1,.844,1.143v4.789a1.127,1.127,0,0,1-1.111,1.143H19.667" transform="translate(-1.889 -4.714)" fill="none" stroke="#8e44d3" stroke-linecap="round" stroke-linejoin="round" stroke-width="1"/>
  </g>
</svg>
