<svg xmlns="http://www.w3.org/2000/svg" width="24" height="24" viewBox="0 0 24 24">
  <g id="Group_74947" data-name="Group 74947" transform="translate(-3600 -4495)">
    <path id="Path_2974" data-name="Path 2974" d="M12,0A12,12,0,1,1,0,12,12,12,0,0,1,12,0Z" transform="translate(3600 4495)" fill="#fff"/>
    <g id="delivery-truck" transform="translate(3604.555 4502.15)">
      <g id="Group_4253" data-name="Group 4253" transform="translate(0 0)">
        <g id="Group_4252" data-name="Group 4252">
          <path id="Path_1111" data-name="Path 1111" d="M0,232.188a.285.285,0,0,0,.285.3H.741A2.018,2.018,0,0,1,2.553,231.3a2.018,2.018,0,0,1,1.813,1.186h5.922v-2.423H0Z" transform="translate(0 -223.589)" fill="#9b51e0"/>
          <path id="Path_1112" data-name="Path 1112" d="M31.815,277.32a1.343,1.343,0,1,0,1.343,1.343A1.343,1.343,0,0,0,31.815,277.32Z" transform="translate(-29.262 -268.968)" fill="#9b51e0"/>
          <path id="Path_1113" data-name="Path 1113" d="M280.267,191.626l-1.279-.562H275v3.972h.774a1.978,1.978,0,0,1,3.625,0h.758a.285.285,0,0,0,.285-.3v-2.822A.309.309,0,0,0,280.267,191.626Z" transform="translate(-264.076 -186.138)" fill="#9b51e0"/>
          <path id="Path_1114" data-name="Path 1114" d="M277.673,121.552a.912.912,0,0,0-.823-.49H275v2.145h3.532Z" transform="translate(-264.076 -118.916)" fill="#9b51e0"/>
          <path id="Path_1115" data-name="Path 1115" d="M9.376,67.064H.907A.916.916,0,0,0,0,68V72.9H10.288V68s0,0,0,0A.92.92,0,0,0,9.376,67.064Z" transform="translate(0 -67.064)" fill="#9b51e0"/>
          <path id="Path_1116" data-name="Path 1116" d="M307.648,277.32a1.343,1.343,0,1,0,1.343,1.343h0A1.343,1.343,0,0,0,307.648,277.32Z" transform="translate(-294.138 -268.968)" fill="#9b51e0"/>
        </g>
      </g>
    </g>
  </g>
</svg>
