<svg id="star" xmlns="http://www.w3.org/2000/svg" width="16" height="16" viewBox="0 0 16 16">
  <g id="Vector" fill="#fff700" opacity="0">
    <path d="M 15.5 15.5 L 0.5 15.5 L 0.5 0.5 L 15.5 0.5 L 15.5 15.5 Z" stroke="none"/>
    <path d="M 1 1 L 1 15 L 15 15 L 15 1 L 1 1 M 0 0 L 16 0 L 16 16 L 0 16 L 0 0 Z" stroke="none" fill="#707070"/>
  </g>
  <path id="Vector-2" data-name="Vector" d="M7.819.955,8.993,3.3a1.449,1.449,0,0,0,.947.7l2.127.353c1.36.227,1.68,1.213.7,2.187L11.113,8.195A1.447,1.447,0,0,0,10.766,9.4l.473,2.047c.373,1.62-.487,2.247-1.92,1.4l-1.993-1.18a1.441,1.441,0,0,0-1.32,0l-1.993,1.18c-1.427.847-2.293.213-1.92-1.4L2.566,9.4a1.447,1.447,0,0,0-.347-1.207L.566,6.542c-.973-.973-.66-1.96.7-2.187L3.393,4a1.452,1.452,0,0,0,.94-.7L5.506.955C6.146-.318,7.186-.318,7.819.955Z" transform="translate(1.334 1.385)" fill="#e2db00"/>
</svg>
